<svg xmlns="http://www.w3.org/2000/svg" viewBox="0 0 1200 800" role="img" aria-labelledby="title desc">
  <title>Elegant Saree</title>
  <desc>Stylized saree illustration with a warm fashion palette.</desc>
  <defs>
    <linearGradient id="bg" x1="0" y1="0" x2="1" y2="1">
      <stop offset="0%" stop-color="#f093fb"/>
      <stop offset="100%" stop-color="#f5576c"/>
    </linearGradient>
    <linearGradient id="dress" x1="0" y1="0" x2="0" y2="1">
      <stop offset="0%" stop-color="#fff6fb"/>
      <stop offset="100%" stop-color="#ffd5e8"/>
    </linearGradient>
    <pattern id="dots" width="34" height="34" patternUnits="userSpaceOnUse">
      <circle cx="8" cy="8" r="2.2" fill="rgba(255,255,255,0.35)"/>
      <circle cx="26" cy="20" r="1.8" fill="rgba(255,255,255,0.18)"/>
    </pattern>
  </defs>
  <rect width="1200" height="800" fill="url(#bg)"/>
  <rect width="1200" height="800" fill="url(#dots)" opacity="0.8"/>
  <circle cx="940" cy="120" r="180" fill="rgba(255,255,255,0.12)"/>
  <circle cx="240" cy="150" r="120" fill="rgba(255,255,255,0.12)"/>
  <path d="M588 170c25 0 46 21 46 46v50c0 10 4 19 10 26l74 77c28 29 44 68 44 110v207c0 19-15 34-34 34H472c-19 0-34-15-34-34V479c0-42 16-81 44-110l74-77c6-7 10-16 10-26v-50c0-25 21-46 46-46h16z" fill="url(#dress)" opacity="0.98"/>
  <path d="M588 170c-21 0-38 17-38 38v59l-63 65c-34 35-53 82-53 130v200h364V462c0-48-19-95-53-130l-63-65v-59c0-21-17-38-38-38h-56z" fill="none" stroke="rgba(139,71,137,0.18)" stroke-width="8"/>
  <path d="M522 256c29 14 59 21 78 21s49-7 78-21" fill="none" stroke="rgba(139,71,137,0.35)" stroke-width="10" stroke-linecap="round"/>
  <path d="M468 472h264" fill="none" stroke="rgba(139,71,137,0.28)" stroke-width="12" stroke-linecap="round"/>
  <path d="M395 676c70-28 139-42 205-42s135 14 205 42" fill="none" stroke="rgba(255,255,255,0.45)" stroke-width="16" stroke-linecap="round"/>
  <circle cx="600" cy="585" r="14" fill="#f5576c"/>
</svg>